<?xml version="1.0" encoding="UTF-8" standalone="no"?><!DOCTYPE svg PUBLIC "-//W3C//DTD SVG 1.1//EN" "http://www.w3.org/Graphics/SVG/1.1/DTD/svg11.dtd"><svg width="100%" height="100%" viewBox="0 0 1638 1959" version="1.1" xmlns="http://www.w3.org/2000/svg" xmlns:xlink="http://www.w3.org/1999/xlink" xml:space="preserve" xmlns:serif="http://www.serif.com/" style="fill-rule:evenodd;clip-rule:evenodd;stroke-linejoin:round;stroke-miterlimit:2;"><text x="824.373px" y="329.487px" style="font-family:'ArialMT', 'Arial', sans-serif;font-size:50px;">5’<tspan x="861.434px 875.325px " y="329.487px 329.487px "> t</tspan>o 3’<tspan x="967.977px 981.868px " y="329.487px 329.487px "> r</tspan>esection</text><text x="306.793px" y="961.239px" style="font-family:'ArialMT', 'Arial', sans-serif;font-size:50px;">SDSA</text><text x="1166.37px" y="973.906px" style="font-family:'ArialMT', 'Arial', sans-serif;font-size:50px;">DHJ</text><text x="277.596px" y="1626.43px" style="font-family:'ArialMT', 'Arial', sans-serif;font-size:50px;">NCO</text><text x="1260.32px" y="1640.54px" style="font-family:'ArialMT', 'Arial', sans-serif;font-size:50px;">CO</text><text x="825.672px" y="622.565px" style="font-family:'ArialMT', 'Arial', sans-serif;font-size:50px;">strand invasion</text><path d="M574.911,881.953l-5.21,-5.78l-56.154,54.922l-5.817,-12.632l-13.163,36.858l37.976,-10.691l-12.987,-7.136l55.355,-55.541Z"/><path d="M574.911,881.953l-55.355,55.541l12.987,7.136l-37.976,10.691l13.163,-36.858l5.817,12.632l56.154,-54.922l5.21,5.78Zm-58.451,52.121l-6.698,-1.236l-1.544,-3.353l-7.013,19.639l20.408,-5.746l-4.063,-2.233l-0.945,-6.593l22.166,-22.24l2.366,-2.374l-24.677,24.136Z"/><path d="M1052.95,890.009l5.21,-5.78l56.154,54.922l5.817,-12.632l13.163,36.858l-37.976,-10.691l12.986,-7.137l-55.354,-55.54Z"/><path d="M1114.32,939.151l5.817,-12.632l13.163,36.858l-37.976,-10.691l12.986,-7.137l-55.354,-55.54l5.21,-5.78l56.154,54.922Zm-25.224,-18.783l22.165,22.24l-0.944,6.593l-4.064,2.233l20.409,5.746l-7.013,-19.639l-1.544,3.353l-6.698,1.236l-24.677,-24.136l2.366,2.374Z"/><path d="M793.012,252.007l-7.338,-0.226l1.146,90.417l-12.422,-5.147l16.686,40.194l17.33,-40.194l-13.313,5.195l-2.089,-90.239Z"/><path d="M793.012,252.007l2.089,90.239l13.313,-5.195l-17.33,40.194l-16.686,-40.194l12.422,5.147l-1.146,-90.417l7.338,0.226Zm-7.787,94.041l-3.117,-1.292l9.049,21.796l9.483,-21.995l-4.025,1.571l-5.68,-3.785l-0.004,-0.16l-5.706,3.865Z"/><path d="M441.422,1203l-7.78,-0.197l1.216,78.538l-13.169,-4.471l17.689,34.913l18.372,-34.913l-14.114,4.513l-2.214,-78.383Z"/><path d="M441.422,1203l2.214,78.383l14.114,-4.513l-18.372,34.913l-17.689,-34.913l13.169,4.471l-1.216,-78.538l7.78,0.197Zm-2.398,78.277l-5.506,4.01l-3.495,-1.187l9.425,18.602l9.873,-18.763l-4.416,1.412l-5.434,-3.851l-0.887,-31.387l-0.094,-3.35l0.534,34.514Z"/><path d="M1218.78,1213.57l-7.78,-0.197l1.216,78.539l-13.169,-4.472l17.689,34.913l18.372,-34.913l-14.114,4.513l-2.214,-78.383Z"/><path d="M1218.78,1213.57l2.214,78.383l14.114,-4.513l-18.372,34.913l-17.689,-34.913l13.169,4.472l-1.216,-78.539l7.78,0.197Zm-2.398,78.277l-5.506,4.01l-3.495,-1.187l9.425,18.603l9.873,-18.763l-4.416,1.412l-5.434,-3.851l-0.886,-31.388l-0.095,-3.35l0.534,34.514Z"/><path d="M443.529,1535.49l-7.78,-0.197l1.215,78.539l-13.168,-4.472l17.688,34.914l18.372,-34.914l-14.114,4.513l-2.213,-78.383Z"/><path d="M443.529,1535.49l2.213,78.383l14.114,-4.513l-18.372,34.914l-17.688,-34.914l13.168,4.472l-1.215,-78.539l7.78,0.197Zm-2.399,78.277l-5.505,4.01l-3.495,-1.187l9.424,18.603l9.874,-18.763l-4.417,1.412l-5.434,-3.851l-0.886,-31.387l-0.095,-3.351l0.534,34.514Z"/><path d="M793.109,546.963l-7.78,-0.197l1.216,78.539l-13.169,-4.472l17.689,34.914l18.371,-34.914l-14.113,4.513l-2.214,-78.383Z"/><path d="M793.109,546.963l2.214,78.383l14.113,-4.513l-18.371,34.914l-17.689,-34.914l13.169,4.472l-1.216,-78.539l7.78,0.197Zm-2.398,78.277l-5.506,4.01l-3.495,-1.187l9.425,18.603l9.873,-18.763l-4.416,1.412l-5.434,-3.851l-0.887,-31.387l-0.094,-3.351l0.534,34.514Z"/><path d="M1217.08,1541.93l-7.78,-0.196l1.215,78.538l-13.168,-4.471l17.688,34.913l18.372,-34.913l-14.114,4.513l-2.213,-78.384Z"/><path d="M1217.08,1541.93l2.213,78.384l14.114,-4.513l-18.372,34.913l-17.688,-34.913l13.168,4.471l-1.215,-78.538l7.78,0.196Zm-2.398,78.278l-5.506,4.009l-3.495,-1.186l9.425,18.602l9.873,-18.763l-4.416,1.412l-5.435,-3.851l-0.886,-31.387l-0.095,-3.35l0.535,34.514Z"/><rect x="1156.91" y="1809.25" width="150.406" height="5"/><rect x="1273.81" y="1805.5" width="228.975" height="12.5"/><rect x="1033.67" y="1805.5" width="124.548" height="12.5"/><g><rect x="900.17" y="1809.66" width="136.083" height="5.251"/><path d="M901.978,1813.76l17.299,-27.715l-1.805,-4.105l-17.298,27.715l1.804,4.105Z"/></g><rect x="1279.35" y="1405.21" width="227.49" height="5"/><rect x="1198.13" y="1485.92" width="39.313" height="5"/><rect x="498.282" y="1038.06" width="222.021" height="5"/><rect x="901.223" y="1836.39" width="166.719" height="5"/><rect x="1011.24" y="1706.9" width="155.26" height="5"/><g><rect x="927.833" y="1055.38" width="166.292" height="5.251"/><path d="M930.043,1056.54l21.139,27.714l-2.205,4.106l-21.138,-27.715l2.204,-4.105Z"/></g><g><rect x="1279.68" y="1035.78" width="237.969" height="5.169"/><path d="M1516.92,1041.64l-28.222,-27.285l2.943,-4.041l28.223,27.284l-2.944,4.042Z"/></g><g><rect x="760.078" y="136.491" width="319.937" height="5.175"/><path d="M1075.76,137.631l-40.669,27.314l4.242,4.046l40.669,-27.314l-4.242,-4.046Z"/></g><g><rect x="754.497" y="425.655" width="321.482" height="5.2"/><path d="M758.769,426.801l40.866,27.445l-4.262,4.065l-40.866,-27.445l4.262,-4.065Z"/></g><g><rect x="487.328" y="425.655" width="155.614" height="5.251"/><path d="M489.396,426.812l19.782,27.715l-2.064,4.105l-19.781,-27.714l2.063,-4.106Z"/></g><g><rect x="113.082" y="1375.43" width="113.948" height="5.251"/><path d="M114.596,1376.59l14.485,27.715l-1.511,4.106l-14.484,-27.715l1.51,-4.106Z"/></g><g><rect x="910.332" y="1406.06" width="128.531" height="5.251"/><path d="M912.04,1407.22l16.338,27.715l-1.704,4.105l-16.338,-27.715l1.704,-4.105Z"/></g><g><rect x="102.666" y="1713.41" width="113.948" height="5.251"/><path d="M104.181,1714.57l14.485,27.715l-1.511,4.105l-14.485,-27.715l1.511,-4.105Z"/></g><g><rect x="127.028" y="1037.55" width="113.948" height="5.251"/><path d="M128.543,1038.7l14.485,27.715l-1.511,4.105l-14.485,-27.714l1.511,-4.106Z"/></g><g><rect x="874.474" y="689.055" width="222.021" height="5.169"/><path d="M1093.54,693.085l-28.223,-27.285l2.944,-4.041l28.222,27.284l-2.943,4.042Z"/></g><g><rect x="874.474" y="689.055" width="222.021" height="5.169"/><path d="M1093.54,693.085l-28.223,-27.285l2.944,-4.041l28.222,27.284l-2.943,4.042Z"/></g><g><rect x="874.474" y="689.055" width="222.021" height="5.169"/><path d="M1093.54,693.085l-28.223,-27.285l2.944,-4.041l28.222,27.284l-2.943,4.042Z"/></g><g><rect x="497.492" y="1014.9" width="222.021" height="5.169"/><path d="M716.562,1018.93l-28.223,-27.284l2.944,-4.042l28.222,27.284l-2.943,4.042Z"/></g><g><rect x="125.11" y="1018.88" width="250.146" height="5.169"/><path d="M371.931,1022.92l-31.798,-27.285l3.316,-4.042l31.798,27.285l-3.316,4.042Z"/></g><g><rect x="106.392" y="1357.18" width="256.396" height="5.169"/><path d="M359.38,1361.21l-32.592,-27.285l3.399,-4.042l32.592,27.285l-3.399,4.042Z"/></g><g><rect x="496.343" y="689.055" width="258.219" height="5.169"/><path d="M751.13,693.085l-32.824,-27.285l3.423,-4.041l32.824,27.284l-3.423,4.042Z"/></g><rect x="486.182" y="117.444" width="258.219" height="5.169"/><path d="M489.614,121.473l32.824,-27.284l-3.424,-4.042l-32.823,27.285l3.423,4.041Z"/><path d="M768.477,800.17l19.807,-16.464l-3.424,-4.042l-19.807,16.464l3.424,4.042Z"/><rect x="765.169" y="796.208" width="66.812" height="5.169"/><g><rect x="496.343" y="705.925" width="157.958" height="5.169"/><path d="M498.442,707.065l20.079,27.284l-2.094,4.042l-20.079,-27.285l2.094,-4.041Z"/></g><g><path d="M738.875,406.162l-19.857,-19.104l-3.333,4.553l19.858,19.105l3.332,-4.554Z"/><rect x="487.328" y="407.087" width="251.432" height="5.944"/></g><g><path d="M1075.98,406.199l-16.446,-19.001l-2.76,4.529l16.446,19.001l2.76,-4.529Z"/><rect x="867.644" y="407.119" width="208.24" height="5.912"/></g><path d="M1172.86,1037.44l29.612,0l79.318,0" style="fill:none;stroke:#000;stroke-width:12.5px;stroke-linecap:square;stroke-miterlimit:1.5;stroke-dasharray:0,18.75,0,0;stroke-dashoffset:122.66;"/><path d="M1078.49,1131.18l42.301,0l113.305,0" style="fill:none;stroke:#000;stroke-width:12.5px;stroke-linecap:square;stroke-miterlimit:1.5;stroke-dasharray:0,18.75,0,0;stroke-dashoffset:122.66;"/><path d="M421.525,1687.99l28.065,0l75.174,0" style="fill:none;stroke:#000;stroke-width:12.5px;stroke-linecap:square;stroke-miterlimit:1.5;stroke-dasharray:0,18.75,0,0;stroke-dashoffset:122.66;"/><g><path d="M206.928,1717.13l15.89,0l42.562,0" style="fill:none;stroke:#000;stroke-width:12.5px;stroke-linecap:square;stroke-miterlimit:1.5;stroke-dasharray:0,18.75,0,0;stroke-dashoffset:122.66;"/><rect x="406.687" y="1714.63" width="295.458" height="5"/><rect x="262.049" y="1710.95" width="158.772" height="12.367"/><path d="M420.821,1710.95l0,12.367l-158.772,0l0,-12.367l158.772,0Zm-154.605,8.201l150.438,0l0,-4.034l-150.438,0l0,4.034Z"/></g><path d="M274.722,1142.45l48.694,0l130.429,0" style="fill:none;stroke:#000;stroke-width:12.5px;stroke-linecap:square;stroke-miterlimit:1.5;stroke-dasharray:0,18.75,0,0;stroke-dashoffset:122.66;"/><path d="M1083.3,1130.83c0.158,-0.128 11.486,-9.27 17.156,-13.846c14.399,-11.62 31.25,-25.219 45.954,-37.086" style="fill:none;stroke:#000;stroke-width:12.5px;stroke-linecap:square;stroke-miterlimit:1.5;stroke-dasharray:0,18.75,0,0;stroke-dashoffset:122.66;"/><g><rect x="483.481" y="1358.3" width="222.021" height="5.169"/><path d="M702.551,1362.33l-28.222,-27.285l2.943,-4.041l28.223,27.284l-2.944,4.042Z"/></g><g><rect x="1272.82" y="1379.61" width="234" height="5.169"/><path d="M1503.71,1383.63l-29.745,-27.284l3.102,-4.042l29.745,27.285l-3.102,4.041Z"/></g><g><rect x="1269.98" y="1707.54" width="225.406" height="5.169"/><path d="M1492.39,1711.57l-28.653,-27.285l2.989,-4.042l28.653,27.285l-2.989,4.042Z"/></g><g><rect x="535.131" y="1683.28" width="163.167" height="5.169"/><path d="M696.129,1687.31l-20.742,-27.285l2.164,-4.042l20.741,27.285l-2.163,4.042Z"/></g><path d="M1282.39,1041.11c-0.125,-0.106 -9.158,-7.685 -13.679,-11.479c-11.481,-9.633 -24.916,-20.907 -36.64,-30.745" style="fill:none;stroke:#000;stroke-width:12.5px;stroke-linecap:square;stroke-miterlimit:1.5;stroke-dasharray:0,18.75,0,0;stroke-dashoffset:122.66;"/><path d="M279.231,1145.16c0.145,-0.118 10.611,-8.564 15.849,-12.792c13.302,-10.735 28.87,-23.298 42.454,-34.262" style="fill:none;stroke:#000;stroke-width:12.5px;stroke-linecap:square;stroke-miterlimit:1.5;stroke-dasharray:0,18.75,0,0;stroke-dashoffset:122.66;"/><g><path d="M1501.95,1845.8l-37.064,40.175l-6.22,-9.576l37.064,-40.174l6.22,9.575Z"/><rect x="1032.82" y="1833.06" width="469.302" height="12.5"/></g><g><g><path d="M1081.12,233.191l-47.877,40.174l-8.035,-9.575l47.877,-40.174l8.035,9.575Z"/><rect x="474.936" y="220.692" width="606.219" height="12.5"/></g><g><path d="M1081.26,202.297l-606.176,7.147l-0.148,-12.499l606.177,-7.147l0.147,12.499Z"/><path d="M523.048,156.96l-47.945,40.093l8.018,9.589l47.946,-40.093l-8.019,-9.589Z"/></g></g><g><g><path d="M710.517,1849.3l-47.878,40.174l-8.035,-9.575l47.878,-40.174l8.035,9.575Z"/><rect x="104.338" y="1836.81" width="606.219" height="12.5"/></g><g><path d="M710.662,1818.41l-606.176,7.146l-0.148,-12.499l606.177,-7.147l0.147,12.5Z"/><path d="M152.45,1773.07l-47.945,40.093l8.018,9.589l47.946,-40.093l-8.019,-9.589Z"/></g></g><g><g><path d="M711.472,1517.88l-47.877,40.174l-8.035,-9.575l47.878,-40.174l8.034,9.575Z"/><rect x="105.294" y="1505.38" width="606.219" height="12.5"/></g><g><path d="M711.617,1486.98l-606.176,7.146l-0.147,-12.499l606.176,-7.147l0.147,12.5Z"/><path d="M153.405,1441.64l-47.945,40.093l8.018,9.589l47.946,-40.093l-8.019,-9.589Z"/></g></g><g><path d="M725.267,1175.05l-47.878,40.174l-8.035,-9.576l47.878,-40.174l8.035,9.576Z"/><rect x="119.145" y="1162.41" width="606.219" height="12.5"/></g><g><path d="M1526.42,1166.16l-48.474,40.175l-8.135,-9.576l48.474,-40.174l8.135,9.575Z"/><rect x="912.657" y="1153.63" width="613.771" height="12.5"/></g><path d="M169.218,1095.07l-47.945,40.093l8.018,9.589l47.946,-40.093l-8.019,-9.589Z"/><g><g><g><path d="M546.577,741.459l-47.945,40.093l8.018,9.589l47.946,-40.093l-8.019,-9.589Z"/><rect x="498.448" y="781.609" width="233.251" height="12.367"/><path d="M731.699,781.609l0,12.367l-233.251,0l0,-12.367l233.251,0Zm-229.084,8.2l224.917,0l0,-4.034l-224.917,0l0,4.034Z"/></g><rect x="857.225" y="785.743" width="240.263" height="12.367"/><path d="M1097.49,798.11l-240.263,0l0,-12.367l240.263,0l0,12.367Zm-236.096,-8.2l0,4.033l231.929,0l0,-4.033l-231.929,0Z"/><rect x="756.035" y="757.374" width="78.024" height="12.367"/><path d="M834.059,757.374l0,12.367l-78.024,0l0,-12.367l78.024,0Zm-73.857,8.201l69.69,0l0,-4.034l-69.69,0l0,4.034Z"/></g><path d="M756.146,757.316l-32.488,27.168l8.018,9.589l32.489,-27.168l-8.019,-9.589Z"/><path d="M833.596,757.227l32.234,31.847l-8.786,8.892l-32.233,-31.847l8.785,-8.892Z"/></g><path d="M169.218,1095.07l-47.945,40.093l8.018,9.589l47.946,-40.093l-8.019,-9.589Z"/><path d="M304.114,1089.67l-49.483,57.726l-9.49,-8.136l49.483,-57.725l9.49,8.135Z"/><path d="M499.005,1147.9l-35.914,-60.032l10.727,-6.417l35.914,60.032l-10.727,6.417Z"/><g><path d="M937.933,1779.17l-47.946,-40.093l8.019,-9.589l47.945,40.093l-8.018,9.589Z"/><rect x="898.23" y="1729.56" width="387.054" height="12.5"/></g><g id="Layer1"><rect x="760.078" y="117.613" width="319.937" height="5"/><rect x="904.912" y="1377.45" width="253.792" height="5"/><rect x="931.958" y="1035.87" width="253.792" height="5"/><rect x="762.695" y="690.136" width="111.865" height="3.177"/><rect x="761.245" y="408.942" width="106.656" height="3.177"/><rect x="869.399" y="706.737" width="226.969" height="5"/><rect x="1277.22" y="1732.26" width="218.635" height="5"/><rect x="450.038" y="1377.26" width="253.792" height="5"/><rect x="483.317" y="136.491" width="261.083" height="5"/><rect x="1295.34" y="1124.58" width="228.354" height="12.5"/><path d="M1295.04,1137.18l-31.446,-77.454l11.582,-4.702l31.446,77.454l-11.582,4.702Z"/><rect x="1093.73" y="1055.3" width="181.428" height="12.367"/><path d="M1275.16,1055.3l0,12.367l-181.429,0l0,-12.367l181.429,0Zm-177.262,8.2l173.095,0l0,-4.034l-173.095,0l0,4.034Z"/><rect x="913.344" y="1124.53" width="147.625" height="12.5"/><path d="M961.293,1084.4l-47.945,40.094l8.018,9.589l47.946,-40.094l-8.019,-9.589Z"/><rect x="274.759" y="1374.28" width="175.229" height="12.5"/><path d="M327.615,1426.91l-52.852,-40.093l8.84,-9.589l52.851,40.093l-8.839,9.589Z"/><path d="M1104.65,1061.43l-43.62,75.552l-10.825,-6.25l43.619,-75.552l10.826,6.25Z"/><g><rect x="1282.88" y="1473.35" width="221.323" height="12.5"/><path d="M1282.58,1485.95l-31.446,-77.454l11.582,-4.702l31.446,77.454l-11.582,4.702Z"/><rect x="1081.27" y="1404.07" width="181.428" height="12.367"/><path d="M1262.7,1416.44l-181.428,0l0,-12.367l181.428,0l0,12.367Zm-177.262,-8.2l0,4.033l173.095,0l0,-4.033l-173.095,0Z"/><rect x="900.883" y="1473.3" width="147.625" height="12.5"/><path d="M948.833,1433.17l-47.946,40.094l8.019,9.589l47.945,-40.093l-8.018,-9.59Z"/><path d="M1092.19,1410.19l-43.62,75.552l-10.825,-6.25l43.62,-75.552l10.825,6.25Z"/></g><rect x="294.778" y="1081.39" width="179.084" height="12.367"/><path d="M473.863,1081.39l0,12.367l-179.085,0l0,-12.367l179.085,0Zm-174.918,8.2l170.751,0l0,-4.034l-170.751,0l0,4.034Z"/><rect x="120.817" y="1135.42" width="133.772" height="12.367"/><path d="M254.589,1135.42l0,12.367l-133.772,0l0,-12.367l133.772,0Zm-129.606,8.2l125.439,0l0,-4.034l-125.439,0l0,4.034Z"/><rect x="1156.83" y="1374.52" width="126.22" height="12.367"/><path d="M1283.05,1386.88l-126.22,0l0,-12.367l126.22,0l0,12.367Zm-122.053,-8.2l0,4.033l117.886,0l0,-4.033l-117.886,0Z"/><rect x="1103.45" y="1482.28" width="94.709" height="12.367"/><path d="M1198.16,1494.65l-94.71,0l0,-12.367l94.71,0l0,12.367Zm-90.543,-8.2l0,4.033l86.376,0l0,-4.033l-86.376,0Z"/><rect x="341.373" y="1681.43" width="77.261" height="12.367"/><path d="M418.634,1693.79l-77.261,0l0,-12.367l77.261,0l0,12.367Zm-73.095,-8.2l0,4.033l68.928,0l0,-4.033l-68.928,0Z"/><rect x="897.818" y="1704.39" width="130.647" height="12.367"/><path d="M1028.46,1704.39l0,12.368l-130.647,0l0,-12.368l130.647,0Zm-126.48,8.201l122.313,0l0,-4.034l-122.313,0l0,4.034Z"/><rect x="1150.95" y="1704.15" width="123.876" height="12.367"/><path d="M1274.82,1704.15l0,12.367l-123.876,0l0,-12.367l123.876,0Zm-119.709,8.2l115.542,0l0,-4.033l-115.542,0l0,4.033Z"/><rect x="499.619" y="1135.42" width="231.428" height="12.367"/><path d="M731.047,1147.78l-231.428,0l0,-12.367l231.428,0l0,12.367Zm-227.261,-8.201l0,4.034l223.094,0l0,-4.034l-223.094,0Z"/></g><g><path d="M1505.45,1512.2l-47.878,40.174l-8.035,-9.576l47.878,-40.174l8.035,9.576Z"/><rect x="899.286" y="1499.27" width="606.219" height="12.5"/></g><rect x="104.858" y="1685.58" width="237.646" height="5"/><rect x="1304.75" y="1054.67" width="215.208" height="5"/><rect x="1222.47" y="1129.11" width="43.801" height="5"/><path d="M457.696,1139.79l45.029,-99.802l-4.557,-2.056l-45.03,99.801l4.558,2.057Z"/><path d="M832.123,801.418l41.709,-92.443l-4.557,-2.056l-41.709,92.443l4.557,2.056Z"/><path d="M1266.36,1133.96l42.877,-76.947l-4.368,-2.433l-42.877,76.947l4.368,2.433Z"/><path d="M1237.45,1490.9l46.275,-83.044l-4.368,-2.433l-46.275,83.043l4.368,2.434Z"/><path d="M1109.3,1486.72l-70.462,-80.584l-3.764,3.291l70.462,80.585l3.764,-3.292Z"/><g><g><g><path d="M1080.15,528.812l-47.878,40.174l-8.035,-9.576l47.878,-40.174l8.035,9.576Z"/><rect x="473.974" y="516.313" width="606.219" height="12.5"/></g><g><path d="M1097.41,817.493l-47.878,40.174l-8.035,-9.576l47.878,-40.174l8.035,9.576Z"/><rect x="498.363" y="804.958" width="598.343" height="12.5"/></g></g><g><path d="M1080.3,497.918l-606.177,7.147l-0.147,-12.5l606.176,-7.146l0.148,12.499Z"/><path d="M522.086,452.58l-47.946,40.094l8.019,9.589l47.946,-40.094l-8.019,-9.589Z"/></g></g></svg>